<svg xmlns="http://www.w3.org/2000/svg" width="28.389" height="23.583" viewBox="0 0 28.389 23.583">
  <path id="back" d="M54.1,65.867c.21-.286.4-.581.638-.848q2.716-3.13,5.441-6.241a1.174,1.174,0,0,1,1.277-.438,1.1,1.1,0,0,1,.819.953,1.194,1.194,0,0,1-.353,1.01c-1.115,1.267-2.22,2.544-3.335,3.821-.248.286-.5.562-.781.9H73.823a8.716,8.716,0,0,1,3.306.591,8.219,8.219,0,0,1,4.745,4.755,8.1,8.1,0,0,1-.381,6.984,8.256,8.256,0,0,1-5.212,4.211,8.974,8.974,0,0,1-2.515.314h-16.7a2.893,2.893,0,0,1-.5-.038,1.136,1.136,0,0,1-.915-1.21,1.166,1.166,0,0,1,1.086-1.067c.124-.01.238,0,.362,0H73.89a6.109,6.109,0,1,0,.01-12.215H58.14c-.076,0-.162.01-.3.019.133.162.238.276.343.4l3.773,4.316a1.163,1.163,0,1,1-1.734,1.544c-.534-.591-1.048-1.191-1.572-1.791q-2.115-2.415-4.23-4.84a3.776,3.776,0,0,1-.314-.5Z" transform="translate(-54.1 -58.291)" fill="#fff303"/>
</svg>
