<?xml version="1.0" encoding="utf-8"?>
<!-- Generator: Adobe Illustrator 27.0.1, SVG Export Plug-In . SVG Version: 6.00 Build 0)  -->
<svg version="1.1" id="Camada_1" xmlns="http://www.w3.org/2000/svg" xmlns:xlink="http://www.w3.org/1999/xlink" x="0px" y="0px"
	 viewBox="0 0 67.3 48" style="enable-background:new 0 0 67.3 48;" xml:space="preserve">
<style type="text/css">
	.st0{fill:#FFF303;}
</style>
<g>
	<path class="st0" d="M56.8,36.1c-0.8,3-2.8,4.7-5.5,4.8c-2.7,0.1-4.6-1.5-5.7-4.7c-7.5,0-15.1,0-22.7,0c-0.3,1.6-1.1,2.9-2.5,3.9
		c-1,0.6-2.1,0.9-3.2,0.9c-2.7-0.1-4.4-1.7-5.4-4.8c-1.1,0-2.2,0-3.4,0c-1.7,0-1.8,0-1.8-1.8c0-8.6,0-17.2,0-25.8
		c0-1.1,0.2-1.3,1.3-1.3c11.3,0,22.6,0,33.9,0c1.1,0,1.3,0.2,1.3,1.3c0,1.4,0,2.8,0,4.3c0.2,0,0.4,0,0.6,0c2.8,0,5.6,0,8.4,0
		c0.5,0,0.9,0.2,1.1,0.6c2.3,4,4.7,8,7,12c0.1,0.2,0.2,0.4,0.2,0.7c0,2.9,0,5.8,0,8.8c0,0.9-0.3,1.2-1.2,1.2
		C58.6,36.1,57.7,36.1,56.8,36.1z M8.4,8.9c0,7.5,0,14.9,0,22.4c0.1,0,0.2,0,0.2,0c1.5,0,3,0,4.4,0c0.2,0,0.5-0.2,0.7-0.3
		c2.1-1.8,5.2-1.8,7.3,0c0.2,0.2,0.6,0.3,0.9,0.3c6.3,0,12.6,0,19,0c0.2,0,0.4,0,0.6,0c0-7.5,0-14.9,0-22.4
		C30.5,8.9,19.5,8.9,8.4,8.9z M58.9,26.8c-0.2,0-0.5,0-0.7,0c-3.8,0-7.7,0-11.5,0c-0.9,0-1.1-0.3-1.1-1.1c0-2.6,0-5.3,0-7.9
		c0-0.9,0.2-1.2,1.2-1.2c2,0,3.9,0,5.9,0c0.2,0,0.4,0,0.7,0c-0.4-0.6-0.7-1.1-0.9-1.6c-0.2-0.3-0.4-0.4-0.8-0.4c-2.6,0-5.2,0-7.7,0
		c-0.2,0-0.4,0-0.5,0c0,6.6,0,13.2,0,19.8c0.8,0,1.6,0,2.3,0c1-3.1,2.9-4.7,5.5-4.7c1.2,0,2.3,0.3,3.3,1c1.3,0.9,2.1,2.2,2.4,3.7
		c0.7,0,1.4,0,2.1,0C58.9,31.8,58.9,29.3,58.9,26.8z M47.3,18.3c0,2.3,0,4.5,0,6.8c3.7,0,7.3,0,10.9,0c0-0.1,0-0.1,0-0.1
		c-1.2-2.1-2.5-4.3-3.7-6.4c-0.1-0.1-0.3-0.2-0.4-0.2C51.8,18.3,49.6,18.3,47.3,18.3z M17.4,39.2c2.2,0,3.9-1.8,3.9-4
		c0-2.1-1.8-3.9-3.9-3.9c-2.2,0-3.9,1.8-3.9,3.9C13.5,37.4,15.3,39.2,17.4,39.2z M55.2,35.3c0-2.2-1.7-4-3.9-4
		c-2.2,0-3.9,1.7-3.9,3.9c0,2.2,1.7,3.9,3.9,3.9C53.4,39.1,55.2,37.4,55.2,35.3z M41.5,33c-6.3,0-12.6,0-18.9,0
		c0.1,0.3,0.2,0.5,0.2,0.8c0.1,0.5,0.3,0.6,0.8,0.6c5.7,0,11.5,0,17.2,0c0.2,0,0.5,0,0.7,0C41.5,33.9,41.5,33.5,41.5,33z M8.4,34.4
		c1.1,0,2.2,0,3.2,0c0.1,0,0.2-0.1,0.2-0.2c0.1-0.4,0.2-0.8,0.3-1.2c-1.3,0-2.5,0-3.8,0C8.4,33.5,8.4,33.9,8.4,34.4z"/>
	<path class="st0" d="M19.8,35.3c0,1.3-1.1,2.4-2.5,2.4c-1.3,0-2.4-1.1-2.4-2.5c0-1.4,1.1-2.5,2.5-2.4
		C18.8,32.8,19.9,33.9,19.8,35.3z M18.2,35.2c0-0.4-0.4-0.8-0.8-0.8c-0.4,0-0.8,0.4-0.7,0.8c0,0.4,0.3,0.7,0.7,0.7
		C17.8,36,18.2,35.6,18.2,35.2z"/>
	<path class="st0" d="M51.3,32.8c1.3,0,2.4,1.1,2.4,2.4c0,1.3-1.1,2.4-2.4,2.4c-1.3,0-2.5-1.1-2.5-2.5
		C48.8,33.9,49.9,32.8,51.3,32.8z M51.3,34.5c-0.4,0-0.8,0.3-0.8,0.8c0,0.4,0.3,0.7,0.7,0.7c0.4,0,0.8-0.3,0.8-0.7
		C52,34.8,51.7,34.5,51.3,34.5z"/>
</g>
</svg>
