<?xml version="1.0" encoding="utf-8"?>
<!-- Generator: Adobe Illustrator 27.1.1, SVG Export Plug-In . SVG Version: 6.00 Build 0)  -->
<svg version="1.1" id="Camada_1" xmlns="http://www.w3.org/2000/svg" xmlns:xlink="http://www.w3.org/1999/xlink" x="0px" y="0px"
	 viewBox="0 0 31.8 27.8" style="enable-background:new 0 0 31.8 27.8;" xml:space="preserve">
<style type="text/css">
	.st0{fill:#1D1D1B;}
</style>
<g>
	<path class="st0" d="M4.8,1.1c0.4,0,0.7,0.3,0.8,0.6l0.2,1h22.9c1.1,0,1.9,1,1.6,2.1l-2.8,9.9c-0.2,0.7-0.9,1.2-1.6,1.2H8.9
		l0.8,3.3h16.7c0.5,0,0.8,0.4,0.8,0.8c0,0.5-0.4,0.8-0.8,0.8H8.9c-0.4,0-0.7-0.3-0.8-0.6l-4-17.6H1.5C1,2.7,0.7,2.4,0.7,1.9
		c0-0.5,0.4-0.8,0.8-0.8H4.8z M6.2,4.4l2.2,9.9h17.5l2.8-9.9H6.2z M7.3,24.7c0-1.6,1.3-2.9,2.9-2.9c1.6,0,2.9,1.3,2.9,2.9
		s-1.3,2.9-2.9,2.9C8.6,27.6,7.3,26.3,7.3,24.7z M10.2,25.9c0.7,0,1.2-0.6,1.2-1.2s-0.6-1.2-1.2-1.2c-0.7,0-1.2,0.6-1.2,1.2
		S9.5,25.9,10.2,25.9z M27.2,24.7c0,1.6-1.3,2.9-2.9,2.9s-2.9-1.3-2.9-2.9s1.3-2.9,2.9-2.9S27.2,23.1,27.2,24.7z M24.3,23.4
		c-0.7,0-1.2,0.6-1.2,1.2s0.6,1.2,1.2,1.2s1.2-0.6,1.2-1.2S25,23.4,24.3,23.4z"/>
</g>
</svg>
