<svg xmlns="http://www.w3.org/2000/svg" width="32.78" height="32.772" viewBox="0 0 32.78 32.772">
  <g id="download" transform="translate(-56.8 -46.098)">
    <path id="Caminho_75" data-name="Caminho 75" d="M89.577,235.353a1.517,1.517,0,1,0-3.021.011v4.6a3.241,3.241,0,0,1-3.447,3.458H63.268a3.252,3.252,0,0,1-3.447-3.458v-4.547A1.522,1.522,0,1,0,56.8,235.4v4.643a6.235,6.235,0,0,0,6.415,6.4h9.969c3.383,0,6.767.011,10.15,0a6.236,6.236,0,0,0,6.233-6.212C89.588,238.609,89.577,236.976,89.577,235.353Z" transform="translate(0 -167.578)" fill="#fff303"/>
    <path id="Caminho_76" data-name="Caminho 76" d="M126.607,69.409A1.581,1.581,0,0,0,129.2,69.4l7.952-7.952a3.835,3.835,0,0,0,.342-.374,1.512,1.512,0,0,0-.854-2.38,1.566,1.566,0,0,0-1.558.534q-2.61,2.626-5.241,5.251c-.107.107-.181.278-.406.267V47.977a3.326,3.326,0,0,0-.053-.726,1.509,1.509,0,0,0-2.924-.032,2.746,2.746,0,0,0-.064.726V64.734c-.053.032-.1.064-.149.1a3.488,3.488,0,0,0-.3-.395q-2.61-2.61-5.209-5.219a1.553,1.553,0,0,0-1.558-.512,1.519,1.519,0,0,0-.619,2.626C121.217,64.019,123.917,66.708,126.607,69.409Z" transform="translate(-54.704 0)" fill="#fff303"/>
  </g>
</svg>
