<?xml version="1.0" encoding="utf-8"?>
<!-- Generator: Adobe Illustrator 27.0.1, SVG Export Plug-In . SVG Version: 6.00 Build 0)  -->
<svg version="1.1" id="Camada_1" xmlns="http://www.w3.org/2000/svg" xmlns:xlink="http://www.w3.org/1999/xlink" x="0px" y="0px"
	 viewBox="0 0 36 48" style="enable-background:new 0 0 36 48;" xml:space="preserve">
<style type="text/css">
	.st0{enable-background:new    ;}
	.st1{fill:#FFF303;}
</style>
<g class="st0">
	<path class="st1" d="M32.2,7V41c0,3.1-2.5,5.7-5.7,5.7h-17c-3.1,0-5.7-2.5-5.7-5.7V7c0-3.1,2.5-5.7,5.7-5.7h17
		C29.6,1.3,32.2,3.8,32.2,7z M29.4,7c0-1.6-1.3-2.8-2.8-2.8h-17C7.9,4.1,6.7,5.4,6.7,7v22.7h22.7V7z M29.4,32.5H6.7V41
		c0,1.6,1.3,2.8,2.8,2.8h17c1.6,0,2.8-1.3,2.8-2.8V32.5z M15.9,38.2c0-1.2,0.9-2.1,2.1-2.1s2.1,0.9,2.1,2.1s-0.9,2.1-2.1,2.1
		C16.8,40.3,15.9,39.4,15.9,38.2z"/>
</g>
</svg>
