<?xml version="1.0" encoding="utf-8"?>
<!-- Generator: Adobe Illustrator 27.7.0, SVG Export Plug-In . SVG Version: 6.00 Build 0)  -->
<svg version="1.1" id="Camada_1" xmlns="http://www.w3.org/2000/svg" xmlns:xlink="http://www.w3.org/1999/xlink" x="0px" y="0px"
	 viewBox="0 0 445.36 515.07" style="enable-background:new 0 0 445.36 515.07;" xml:space="preserve">
<g>
	<path d="M424.29,263.9c0,106-91.62,192.26-201.7,192.26h-0.09c-33.48,0-66.33-8.05-95.49-23.38L21.08,459.54l28.35-99.59
		c-17.46-29.19-26.64-62.27-26.64-96.13c0-106,89.64-192.26,199.81-192.26c53.37,0,103.59,20.01,141.3,56.38
		S424.29,212.54,424.29,263.9z M390.54,263.9c0.09-42.7-19.17-82.79-50.49-113.02c-31.32-30.23-72.99-46.85-117.36-46.85
		c-91.62,0-166.14,71.71-166.14,159.79c0,30.22,8.73,59.58,25.38,85.05l3.96,6.06L69.14,413.9l62.82-15.85l6.03,3.46
		c25.47,14.55,54.72,22.26,84.6,22.26C314.12,423.77,390.54,352.06,390.54,263.9z M323.12,309.8c1.26,1.99,1.26,11.6-2.88,22.86
		c-4.14,11.26-24.03,21.48-33.66,22.86c-15.84,2.25-28.26,1.13-59.94-12.04c-50.13-20.87-82.8-69.37-85.32-72.57
		c-2.43-3.2-20.34-26.07-20.34-49.71s12.87-35.25,17.46-40.1c4.59-4.76,9.99-5.98,13.32-5.98s6.66,0,9.54,0.17
		c3.06,0.17,7.2-1.13,11.25,8.23c4.14,9.61,14.13,33.26,15.39,35.68c1.26,2.43,2.07,5.2,0.45,8.4
		c-9.54,18.36-19.8,17.75-14.67,26.24c19.35,31.96,38.61,43.04,67.95,57.16c4.95,2.42,7.92,1.99,10.8-1.21
		c2.97-3.29,12.51-14.03,15.84-18.88c3.33-4.85,6.66-4.07,11.25-2.42c4.59,1.56,29.16,13.16,34.11,15.59
		C318.62,306.42,321.95,307.64,323.12,309.8z"/>
</g>
</svg>
